<?xml version="1.0" encoding="UTF-8"?>
<svg version="1.1" xmlns="http://www.w3.org/2000/svg" width="1024" height="1024">
<path d="M0 0 C337.92 0 675.84 0 1024 0 C1024 337.92 1024 675.84 1024 1024 C686.08 1024 348.16 1024 0 1024 C0 686.08 0 348.16 0 0 Z " fill="#181818" transform="translate(0,0)"/>
<path d="M0 0 C1.26905647 1.42070473 2.51847178 2.85914371 3.75 4.3125 C7.02077468 8.16008465 10.53984812 11.12210318 14.5625 14.125 C30.07760338 25.7904582 41.04614923 41.26299576 44.3125 60.75 C46.87077741 83.03653203 43.98617408 106.38197623 35 127 C35.92619141 127.40605469 35.92619141 127.40605469 36.87109375 127.8203125 C41.74447189 130.52078993 43.2831214 136.37573581 44.75 141.4375 C48.63425155 158.60546266 44.79899033 173.95084526 36 189 C30.79310387 197.04702129 22.45227753 202.17503186 13.3125 204.625 C6.44288883 206.91162695 4.35848476 212.14866592 1.04199219 218.21240234 C-7.86341321 233.4901386 -21.30972709 245.34383138 -36.8125 253.5625 C-38.66679036 254.62906508 -38.66679036 254.62906508 -40 256 C-40.5721547 259.26128178 -40.54371971 260.84539977 -40 264 C-39.84273437 265.05058594 -39.68546875 266.10117187 -39.5234375 267.18359375 C-39.05807234 270.13206406 -38.53948084 273.06442377 -38 276 C-27.12679013 279.57189849 -16.19372196 282.52317089 -5.06735229 285.19317627 C30.98292589 293.88960364 64.0552352 303.45813578 84.92700195 336.6472168 C93.68515109 351.19630596 99.16162359 367.80674802 99.14044189 384.83818054 C99.14489858 385.97610439 99.14489858 385.97610439 99.1494453 387.13701659 C99.15807231 389.66256348 99.15963538 392.18806263 99.16113281 394.71362305 C99.16576493 396.53080343 99.17079011 398.34798284 99.17617798 400.16516113 C99.1892587 405.08841154 99.19573747 410.01164834 99.20018864 414.9349134 C99.20312396 418.01063007 99.20722945 421.08634306 99.21169281 424.16205788 C99.22535102 433.78570401 99.23502812 443.40934168 99.2388947 453.03299683 C99.24338344 464.14324971 99.26097608 475.25338006 99.2898953 486.36359566 C99.31148285 494.95481357 99.32159727 503.54599691 99.32293582 512.13724166 C99.32398516 517.2681394 99.32992139 522.39892168 99.34775543 527.52979088 C99.3641874 532.3503742 99.36641546 537.17075461 99.35761642 541.9913559 C99.35684366 543.76188766 99.36122016 545.53243014 99.37107468 547.30293465 C99.38372284 549.71645738 99.37795696 552.12925341 99.36749268 554.54277039 C99.37554908 555.24616962 99.38360548 555.94956885 99.39190602 556.67428321 C99.36114498 559.69946479 99.14306722 561.74358904 97.65671921 564.4074831 C95.20404045 566.76511399 93.35802249 566.93283955 90 567 C85.43478261 564.86956522 85.43478261 564.86956522 84 562 C83.89686975 559.59407997 83.85392464 557.21662939 83.85523987 554.81019592 C83.8499496 553.6860887 83.8499496 553.6860887 83.84455246 552.53927225 C83.83383228 550.01453799 83.83017863 547.48984141 83.82641602 544.96508789 C83.82011294 543.16000203 83.81334742 541.35491773 83.80615234 539.54983521 C83.79146023 535.65439744 83.77974414 531.75896578 83.77020454 527.86351204 C83.75476637 521.69799606 83.73081445 515.53253165 83.70530701 509.36705017 C83.63407568 491.83156598 83.57443625 474.29605161 83.52319336 456.76049805 C83.4948346 447.0818739 83.45941819 437.40330042 83.41653961 427.72472948 C83.3898429 421.60280348 83.37189052 415.48093483 83.36050236 409.35896218 C83.35133535 405.53655975 83.33395343 401.71422644 83.31432343 397.89186478 C83.30688904 396.1275193 83.30276936 394.36315603 83.30232811 392.59879494 C83.29682718 380.42244549 82.93693915 369.07191184 77.6875 357.875 C77.37264648 357.18760742 77.05779297 356.50021484 76.73339844 355.79199219 C75.83645093 353.85425575 74.91980488 351.92695661 74 350 C73.60941406 349.14148438 73.21882812 348.28296875 72.81640625 347.3984375 C63.59844538 328.82745406 45.00171168 317.30498735 26.15185547 310.75 C24.04456701 310.01553322 21.94633245 309.25866478 19.84765625 308.5 C7.14878019 304.00619217 -5.87502973 300.97584381 -19 298 C-18.98477295 298.77456543 -18.9695459 299.54913086 -18.95385742 300.34716797 C-18.8622567 308.69342682 -19.39970885 316.83267844 -20.3125 325.125 C-20.43044922 326.30964844 -20.54839844 327.49429687 -20.66992188 328.71484375 C-22.72425379 347.82539806 -22.72425379 347.82539806 -27.8125 352.6875 C-31.45311126 354.18657522 -33.09636482 354.53355761 -37 354 C-40.11556978 352.28821138 -42.87367332 350.16388905 -45.6875 348 C-46.48043457 347.4107373 -47.27336914 346.82147461 -48.09033203 346.21435547 C-51.5801156 343.6170924 -55.03429585 340.97500511 -58.48046875 338.3203125 C-59.43566406 337.59585937 -60.39085937 336.87140625 -61.375 336.125 C-62.18710937 335.48820312 -62.99921875 334.85140625 -63.8359375 334.1953125 C-65.87977702 332.83480369 -65.87977702 332.83480369 -68 333.01953125 C-70.79672327 334.39058113 -72.49757586 336.29301659 -74.625 338.5625 C-78.05151412 342.07492967 -81.49944682 345.45799211 -85.25 348.625 C-86.40242187 349.60339844 -86.40242187 349.60339844 -87.578125 350.6015625 C-90.78017331 352.45048717 -92.34748857 352.65418115 -96 352 C-98.59513625 350.40293548 -100.76637872 348.4379297 -103 346.375 C-103.59039063 345.85292969 -104.18078125 345.33085938 -104.7890625 344.79296875 C-107.1569185 342.6806743 -109.47154483 340.58627514 -111.59765625 338.22753906 C-114.42446939 334.92699664 -114.42446939 334.92699664 -118.44140625 333.87109375 C-121.78026659 335.3442703 -124.85626183 337.12247602 -127.9375 339.0625 C-129.26348796 339.87896175 -130.59033303 340.69403288 -131.91796875 341.5078125 C-132.59134277 341.92192383 -133.2647168 342.33603516 -133.95849609 342.76269531 C-138.30579125 345.39748267 -142.74659262 347.87050611 -147.171875 350.37109375 C-149.15498018 351.5132966 -151.09583449 352.73055633 -153 354 C-156.8973724 354.50835292 -158.50556726 354.32962183 -161.8125 352.125 C-164.65140562 349.36720597 -164.97388796 348.6710795 -165.12939453 344.67456055 C-165.13603325 343.24529491 -165.13674158 341.8159944 -165.1328125 340.38671875 C-165.13424759 339.2386248 -165.13424759 339.2386248 -165.13571167 338.06733704 C-165.13639346 336.43901488 -165.13453928 334.81069001 -165.13037109 333.18237305 C-165.12510323 330.73544872 -165.13027362 328.28871484 -165.13671875 325.84179688 C-165.14015871 316.84115307 -164.87875342 307.96468611 -164 299 C-191.391759 303.81521011 -215.8814991 311.15038374 -240.68139648 323.83056641 C-246.82109636 326.95710117 -253.05522279 329.8670409 -259.3125 332.75 C-260.30290283 333.21003418 -261.29330566 333.67006836 -262.3137207 334.14404297 C-286.56762932 345.25965849 -286.56762932 345.25965849 -296.1328125 342.3515625 C-307.46637408 337.73126039 -316.21544989 328.3888448 -325.03125 320.1796875 C-326.10393182 319.1820391 -327.17685359 318.18464864 -328.25 317.1875 C-329.06416382 316.4303772 -329.06416382 316.4303772 -329.89477539 315.65795898 C-333.90329514 311.95386896 -338.01830072 308.39641349 -342.1875 304.875 C-347.21682399 300.62292263 -351.95803879 296.20553414 -356.5234375 291.44921875 C-358.52682488 289.46795079 -360.55327276 287.64086314 -362.6887207 285.80908203 C-366.7865807 282.23636918 -370.63945958 278.47353489 -374.45703125 274.60546875 C-375.12667404 273.93203934 -375.79631683 273.25860992 -376.48625183 272.56477356 C-378.59748044 270.44146009 -380.70539267 268.31490283 -382.8125 266.1875 C-385.60779839 263.36561288 -388.40639428 260.54705639 -391.20703125 257.73046875 C-391.84453812 257.08466354 -392.48204498 256.43885834 -393.13887024 255.77348328 C-393.73346542 255.17558487 -394.32806061 254.57768646 -394.94067383 253.96166992 C-395.46059402 253.43651291 -395.98051422 252.9113559 -396.51618958 252.37028503 C-400.28680922 248.8881531 -402.81870658 248.70345461 -407.8125 248.6875 C-409.01519531 248.67074219 -410.21789062 248.65398437 -411.45703125 248.63671875 C-417.86140858 249.29339691 -421.8640218 252.21097261 -426 257 C-429.14273494 261.41681667 -430.97445835 265.1165219 -430.6953125 270.625 C-429.17296186 275.82493925 -424.75471569 279.29418798 -421 283 C-419.15446735 284.96962426 -417.32081565 286.94548288 -415.5 288.9375 C-415.0364209 289.43967041 -414.5728418 289.94184082 -414.09521484 290.45922852 C-411.03722282 293.79157344 -408.14680851 297.22296893 -405.3125 300.75 C-402.0548486 304.79738507 -398.63235164 308.48245049 -394.90625 312.09765625 C-392.35063997 314.64802937 -390.02299048 317.36826629 -387.67578125 320.109375 C-386.04184913 321.9527856 -384.33458978 323.66516162 -382.5625 325.375 C-380 328 -380 328 -380 330 C-379.42378906 330.23976563 -378.84757812 330.47953125 -378.25390625 330.7265625 C-375.54250044 332.25848329 -373.97558118 334.02073052 -371.9375 336.375 C-368.9644247 339.76791845 -365.97128802 343.12842841 -362.89941406 346.43139648 C-359.01017585 350.617145 -355.25827801 354.84737128 -351.6875 359.3125 C-347.37906021 364.66893865 -342.73526793 369.65583448 -338.02124023 374.65234375 C-335.03171937 377.82121147 -332.08045448 380.99912437 -329.25 384.3125 C-328.17165292 385.54604343 -327.08804311 386.77500041 -326 388 C-325.29230469 388.79792969 -324.58460938 389.59585937 -323.85546875 390.41796875 C-315.2075467 399.65266419 -303.73635562 407.73420214 -290.75390625 408.48828125 C-282.0070124 408.33302692 -274.08195929 405.09665308 -265.9375 402.1875 C-262.80290098 401.09152897 -259.66517556 400.00464434 -256.52734375 398.91796875 C-255.77987885 398.65777954 -255.03241394 398.39759033 -254.26229858 398.1295166 C-235.08276255 391.49491296 -235.08276255 391.49491296 -228 393 C-226.4070425 394.11295509 -226.4070425 394.11295509 -225 396 C-224.61968327 398.93204308 -224.61968327 398.93204308 -224.61231995 402.59115601 C-224.60424164 403.60038838 -224.60424164 403.60038838 -224.59600013 404.63000929 C-224.58166779 406.88942936 -224.58883694 409.1482679 -224.59594727 411.40771484 C-224.59024636 413.02564466 -224.58328319 414.64357045 -224.57514954 416.26148987 C-224.55717021 420.66032573 -224.55839564 425.05896263 -224.56409192 429.45782423 C-224.56717745 433.12834797 -224.5610983 436.79883315 -224.55505317 440.46935141 C-224.54099337 449.12868863 -224.54258081 457.78792723 -224.55395508 466.44726562 C-224.56543316 475.3831357 -224.5513692 484.31870554 -224.5245586 493.25453603 C-224.50241003 500.92342252 -224.49576245 508.59221472 -224.50163502 516.26113093 C-224.50500839 520.84273311 -224.50256462 525.42414291 -224.48538399 530.00571823 C-224.46993071 534.31500087 -224.47385221 538.62383861 -224.49268913 542.93310356 C-224.49637978 544.5145363 -224.49325266 546.09600188 -224.48280334 547.6774044 C-224.46962295 549.83707614 -224.48111236 551.99526868 -224.49879456 554.15487671 C-224.49900384 555.36313803 -224.49921312 556.57139935 -224.49942875 557.81627464 C-225.10096567 561.64216026 -226.27520641 563.29252842 -229 566 C-231.9375 567.0625 -231.9375 567.0625 -235 567 C-237.65145397 565.38206863 -237.65145397 565.38206863 -240 563 C-240.63085651 560.16520309 -240.63085651 560.16520309 -240.63923645 556.82440186 C-240.65452393 555.55678009 -240.6698114 554.28915833 -240.68556213 552.98312378 C-240.67731026 551.58086879 -240.6685815 550.17861655 -240.65942383 548.77636719 C-240.6678769 547.2979497 -240.67852096 545.81954335 -240.69119263 544.34115601 C-240.71936816 540.32896917 -240.71686239 536.31731641 -240.70889878 532.30506039 C-240.70577643 528.11159799 -240.73080004 523.91830651 -240.75285339 519.72491455 C-240.79032684 511.78475737 -240.80244333 503.84477146 -240.8054778 495.90453458 C-240.81016506 486.86462792 -240.84307766 477.82489321 -240.87837565 468.78506231 C-240.95035079 450.19005811 -240.9868334 431.59513413 -241 413 C-242.25589935 413.14816666 -243.51179871 413.29633331 -244.80575562 413.44898987 C-245.512199 413.53233361 -246.21864239 413.61567736 -246.94649315 413.70154667 C-249.75179654 414.10926488 -252.34813761 414.89493735 -255.0390625 415.77734375 C-256.65167969 416.30038086 -256.65167969 416.30038086 -258.296875 416.83398438 C-259.39515625 417.19814453 -260.4934375 417.56230469 -261.625 417.9375 C-262.73101563 418.29779297 -263.83703125 418.65808594 -264.9765625 419.02929688 C-269.02913409 420.35174061 -273.07866221 421.67393342 -277.09741211 423.09619141 C-290.53468078 427.28029172 -304.89900275 423.26148812 -317.13671875 417.53125 C-325.02016639 413.32674459 -331.25251648 407.60530658 -337.578125 401.39550781 C-338.80008765 400.19620518 -340.03907976 399.01429763 -341.28125 397.8359375 C-345.7764462 393.50128403 -349.66711272 388.79891922 -353.57421875 383.93359375 C-357.04346148 379.73810052 -360.7380537 375.76897147 -364.4375 371.77734375 C-367.09866345 368.89306447 -369.68699008 365.95662867 -372.2578125 362.9921875 C-375.07522054 359.77048772 -377.95375299 356.60408493 -380.82421875 353.4296875 C-382.68484032 351.35193774 -384.50302808 349.24705709 -386.3125 347.125 C-389.38621782 343.58556735 -392.66963187 340.29459069 -396 337 C-399.88539014 333.15624753 -403.62598899 329.26942211 -407.17578125 325.109375 C-409.48249719 322.44208033 -411.86300794 319.84518644 -414.25 317.25 C-414.71784912 316.74098145 -415.18569824 316.23196289 -415.66772461 315.70751953 C-416.6287912 314.66250485 -417.59013864 313.6177484 -418.55175781 312.57324219 C-421.82825851 309.0139417 -425.10003885 305.45036655 -428.36328125 301.87890625 C-430.0610324 300.02521352 -431.76621186 298.17828303 -433.48046875 296.33984375 C-442.14077337 286.95422048 -447.85487953 279.53114564 -447.56640625 266.36328125 C-446.9443359 258.6166445 -442.66949092 251.69190644 -439 245 C-439.49628906 244.5153125 -439.99257813 244.030625 -440.50390625 243.53125 C-441.18324219 242.8609375 -441.86257813 242.190625 -442.5625 241.5 C-443.22378906 240.8503125 -443.88507813 240.200625 -444.56640625 239.53125 C-446.45941213 237.5622808 -448.22717616 235.57573199 -449.99609375 233.5 C-455.18029552 227.53069243 -460.87871384 222.05247414 -466.5 216.5 C-479.14038841 204.01434674 -479.14038841 204.01434674 -484.49707031 197.72998047 C-486.90649758 194.9565559 -489.50621189 192.38661062 -492.125 189.8125 C-492.87330078 189.0709668 -492.87330078 189.0709668 -493.63671875 188.31445312 C-494.13042969 187.82525391 -494.62414062 187.33605469 -495.1328125 186.83203125 C-495.60952393 186.35846191 -496.08623535 185.88489258 -496.57739258 185.39697266 C-497.97818583 184.02142109 -499.40499318 182.67252368 -500.83203125 181.32421875 C-503 179 -503 179 -503.5625 176 C-502.8491179 172.19529549 -501.88381579 170.58803981 -499 168 C-495.625 166.9375 -495.625 166.9375 -492 167 C-487.36824705 169.66753487 -483.76030478 172.95987158 -480.0625 176.75 C-479.57587891 177.23726562 -479.08925781 177.72453125 -478.58789062 178.2265625 C-475.83109921 181.01587177 -473.2111401 183.88739776 -470.65234375 186.859375 C-466.8103954 191.29031996 -462.68229397 195.39252345 -458.5 199.5 C-453.7406101 204.17424876 -449.14050472 208.89530645 -444.78222656 213.94677734 C-441.48824997 217.74161887 -438.08740926 221.42132504 -434.625 225.0625 C-433.92117188 225.84560547 -433.21734375 226.62871094 -432.4921875 227.43554688 C-428.73495084 231.51925378 -428.73495084 231.51925378 -423.68676758 233.29321289 C-421.38039815 233.04008368 -419.24434222 232.58054967 -417 232 C-399.87404254 230.0755167 -399.87404254 230.0755167 -392.1875 235.4375 C-387.76265701 238.98432895 -383.84117696 243.04986661 -379.90625 247.12109375 C-377.75832424 249.30481827 -375.50953593 251.31915853 -373.1875 253.31640625 C-367.96717742 257.83242893 -363.18906543 262.76195341 -358.35546875 267.68359375 C-354.32615921 271.75710047 -350.21419272 275.6455289 -345.87109375 279.3828125 C-343.10403558 281.77438261 -340.42791414 284.25962083 -337.75 286.75 C-336.62644144 287.79051508 -335.50274014 288.83087606 -334.37890625 289.87109375 C-333.8183252 290.3904248 -333.25774414 290.90975586 -332.68017578 291.44482422 C-326.18467692 297.4570776 -319.68643409 303.46241076 -312.9921875 309.25390625 C-310.63062889 311.32374291 -308.31863129 313.44472279 -306 315.5625 C-304.33785187 317.04674237 -302.67139688 318.52618038 -301 320 C-300.29617188 320.6290625 -299.59234375 321.258125 -298.8671875 321.90625 C-298.20976563 322.4528125 -297.55234375 322.999375 -296.875 323.5625 C-296.31554687 324.03816406 -295.75609375 324.51382812 -295.1796875 325.00390625 C-290.6070298 327.09356165 -286.14323155 326.33684501 -281.5 324.96875 C-280.345 324.4840625 -279.19 323.999375 -278 323.5 C-277.3495874 323.22792725 -276.6991748 322.95585449 -276.02905273 322.67553711 C-270.97245863 320.5191824 -266.06571853 318.09060257 -261.16674805 315.59790039 C-228.59242772 299.08418593 -197.86836595 288.84901692 -162 282 C-161.22126526 281.85038818 -160.44253052 281.70077637 -159.64019775 281.54663086 C-146.37122175 279 -146.37122175 279 -144 279 C-144.33 278.01 -144.66 277.02 -145 276 C-144.9230957 274.04223633 -144.9230957 274.04223633 -144.67578125 271.83203125 C-143.60558648 262.44874804 -143.60558648 262.44874804 -147.28125 254.28515625 C-150.43591546 252.29722918 -153.66231915 250.65917159 -157 249 C-173.79160092 236.85429657 -183.98347911 220.7401915 -192 202 C-192.38929688 201.14792969 -192.77859375 200.29585937 -193.1796875 199.41796875 C-201.44529149 179.58692661 -200.86683058 156.2883992 -201.40991211 135.22119141 C-201.81924556 120.37153704 -202.53634126 108.97304778 -210 96 C-217.3672726 74.99296922 -214.63592891 51.88811329 -205.26904297 32.02636719 C-192.52282408 5.89875607 -171.71169411 -10.00439118 -144.65234375 -19.59375 C-139.46201781 -21.27524959 -134.18614924 -22.22842244 -128.8125 -23.125 C-127.79003174 -23.29676758 -126.76756348 -23.46853516 -125.71411133 -23.64550781 C-86.50650842 -30.04497394 -31.03550678 -29.11514608 0 0 Z " fill="#E8B74D" transform="translate(819,179)"/>
<path d="M0 0 C8.66519218 6.84906286 15.30571289 13.71894474 20.5 23.5 C20.94085938 24.26828125 21.38171875 25.0365625 21.8359375 25.828125 C26.54928591 34.45498087 29.4069175 44.3020537 29.9375 54.125 C30.25943482 59.66392991 32.13545601 64.2096043 34.34375 69.26171875 C37.13849671 77.08889788 36.7135585 85.47449586 36.75 93.6875 C36.7809375 95.40163086 36.7809375 95.40163086 36.8125 97.15039062 C36.91534675 119.89237734 27.84058239 141.04212379 12.14453125 157.28271484 C7.2196602 162.23515047 2.27405127 166.55280866 -3.5 170.5 C-2.94054687 170.81710937 -2.38109375 171.13421875 -1.8046875 171.4609375 C11.18588321 179.02136611 22.21966678 187.54184261 32.5 198.5 C33.04527344 197.53320312 33.59054687 196.56640625 34.15234375 195.5703125 C44.21101609 178.06344351 57.25747721 166.71325569 74.5 156.5 C75.49 155.84 76.48 155.18 77.5 154.5 C76.33984375 153.48292969 76.33984375 153.48292969 75.15625 152.4453125 C58.77053451 137.88990226 46.92283023 120.75048173 44.5 98.5 C43.15582035 73.08983475 50.19842123 51.30253397 66.80078125 31.796875 C80.76577719 16.8947844 101.81633057 6.16894309 122.3203125 5.1875 C141.71299375 4.72618139 159.72487153 8.80263738 175.5 20.5 C176.48613281 21.22960937 177.47226562 21.95921875 178.48828125 22.7109375 C195.73868666 36.25699918 207.23562867 56.17595154 210.25 78 C210.35703537 79.4984952 210.43807606 80.99896373 210.5 82.5 C210.59474609 83.98113281 210.59474609 83.98113281 210.69140625 85.4921875 C211.52523024 108.78546407 202.71398314 129.19706738 187.03515625 146.16796875 C183.98388203 149.27858704 181.13159869 152.07893421 177.5 154.5 C178.58796875 155.16644531 179.6759375 155.83289063 180.796875 156.51953125 C203.35912791 170.56845549 222.23132719 189.86699464 228.5 216.5 C229.67703613 222.07589045 229.678638 227.55375931 229.703125 233.2265625 C229.70882507 234.25180023 229.71452515 235.27703796 229.72039795 236.33334351 C229.72981578 238.49337745 229.73636909 240.65342555 229.74023438 242.81347656 C229.7499873 246.12069401 229.78106021 249.42730193 229.8125 252.734375 C229.81902614 254.83593382 229.82427814 256.93749707 229.828125 259.0390625 C229.8404718 260.02766266 229.8528186 261.01626282 229.86553955 262.03482056 C229.86253845 262.95612762 229.85953735 263.87743469 229.85644531 264.82666016 C229.86009094 265.63463043 229.86373657 266.44260071 229.86749268 267.27505493 C229.40201676 270.09322901 228.45864465 271.44199663 226.5 273.5 C223.125 274.5625 223.125 274.5625 219.5 274.5 C215.81268492 271.77251172 214.6241083 270.27124442 213.88818359 265.69799805 C213.86740519 264.21938032 213.87231309 262.74025169 213.8984375 261.26171875 C213.88642807 260.06407646 213.88642807 260.06407646 213.87417603 258.84223938 C213.85116724 256.29014298 213.86050334 253.73963754 213.875 251.1875 C213.91339349 226.42129749 210.3652301 204.59194598 192.77734375 185.6875 C184.07024411 177.32390515 170.49496906 166.80415621 157.83203125 166.2109375 C154.93858278 166.5695894 152.44369951 167.48329892 149.6875 168.4375 C135.26409238 172.95169628 116.41228145 172.81607084 102.26171875 167.375 C96.74105151 165.62587771 92.26234703 166.18053636 87.125 168.6875 C86.18140625 169.14769531 85.2378125 169.60789062 84.265625 170.08203125 C83.35296875 170.54996094 82.4403125 171.01789063 81.5 171.5 C80.71109375 171.89574219 79.9221875 172.29148437 79.109375 172.69921875 C63.04526033 181.15253783 50.95993832 195.52548123 44.5 212.5 C43.83801906 217.9086852 45.57497977 222.36005991 47.375 227.375 C53.30063336 244.18792145 57.08885304 263.55592056 49.58203125 280.58203125 C47.2719153 284.45736863 44.03621298 286.64997539 39.81415176 288.06502056 C36.5388323 288.68066585 33.29366378 288.64803253 29.97357178 288.64717102 C29.21217431 288.65084771 28.45077685 288.6545244 27.66630673 288.6583125 C25.11314296 288.66933188 22.56001991 288.6731902 20.00683594 288.67700195 C18.17688366 288.68326788 16.34693265 288.68991479 14.51698303 288.69691467 C8.50612268 288.71794048 2.49526211 288.72831503 -3.515625 288.73828125 C-5.58576216 288.74232922 -7.65589919 288.74644616 -9.72603607 288.75063133 C-19.45114625 288.769679 -29.17624886 288.78391146 -38.9013741 288.7922433 C-50.12428357 288.80201739 -61.3469959 288.82834324 -72.5698359 288.86874419 C-81.24682922 288.89890778 -89.92376603 288.91371238 -98.60081077 288.91702431 C-103.78222385 288.91937433 -108.96342621 288.92832875 -114.14478302 288.95348549 C-119.0203721 288.97677567 -123.89561184 288.98099559 -128.77124214 288.97072411 C-130.55783564 288.97022888 -132.3444464 288.97654534 -134.13098717 288.99028015 C-136.57628669 289.00802339 -139.02033573 289.00088181 -141.46563721 288.98774719 C-142.51800139 289.00420106 -142.51800139 289.00420106 -143.59162545 289.02098733 C-148.94292289 288.95192144 -153.09732976 287.43388854 -157.5 284.5 C-163.69346761 277.16563047 -163.86231748 269.23180517 -163.8125 260.0625 C-163.80758545 258.9993457 -163.8026709 257.93619141 -163.79760742 256.84082031 C-163.39856641 229.7878858 -151.66746942 207.36119218 -132.83911133 188.38891602 C-125.31473673 181.108888 -116.45910518 175.8279527 -107.5 170.5 C-108.10585937 170.05011719 -108.71171875 169.60023438 -109.3359375 169.13671875 C-128.63778611 154.31883805 -141.91552902 133.72465248 -145.5 109.5 C-146.09494625 102.68344073 -146.0781404 95.85327053 -146.02148438 89.01586914 C-146.00000011 85.93751515 -146.02142047 82.86148777 -146.046875 79.78320312 C-146.08827826 49.79158387 -134.75332297 27.05713176 -114.5859375 5.44921875 C-82.51200301 -25.28241452 -34.33867091 -24.95771253 0 0 Z " fill="#E8B758" transform="translate(287.5,577.5)"/>
<path d="M0 0 C0.10957031 1.07636719 0.21914063 2.15273437 0.33203125 3.26171875 C2.72723986 25.83435176 9.43286773 41.96213246 23 60 C26.37885739 64.55427167 28.94498478 68.7002239 31 74 C33.98254632 72.67299235 35.83525185 71.23326275 38.0625 68.875 C41.97697723 65.42552546 45.37846993 65.2363253 50.47265625 65.55078125 C54.05641743 66.18777126 55.73053667 67.14486872 58 70 C62.14833177 79.08682198 60.70787412 90.91022806 58.03515625 100.24609375 C55.13036546 107.97393341 50.31984134 114.08071487 43 118 C40.61862717 118.87379932 38.22120856 119.70464796 35.8125 120.5 C26.51899367 123.64732163 23.99360819 128.89809374 19.59765625 137.1953125 C17.14982635 141.49248088 14.16199495 145.21263272 11 149 C10.50242187 149.64324219 10.00484375 150.28648437 9.4921875 150.94921875 C-4.38200434 168.13508955 -26.84157585 180.41673179 -48.75390625 182.83007812 C-74.33422499 184.76528485 -97.62878625 181.86296386 -118.15625 165.48046875 C-144.47405838 142.52468809 -153.87981766 114.9510456 -156.36279297 80.79101562 C-156.50897519 78.59665452 -156.65057588 76.4019834 -156.78759766 74.20703125 C-156.92464406 72.13778806 -157.08171719 70.06972788 -157.26318359 68.00390625 C-158.43331978 54.44963721 -156.70819457 46.37303935 -148.84375 35.2265625 C-145.22124782 30.08117946 -143.17470267 24.62165903 -141.0234375 18.74609375 C-140 16 -140 16 -139 15 C-137.50736259 14.9830771 -136.01385328 15.03794544 -134.5234375 15.12109375 C-133.07614258 15.19384521 -133.07614258 15.19384521 -131.59960938 15.26806641 C-130.53548828 15.32397949 -129.47136719 15.37989258 -128.375 15.4375 C-113.24622553 16.13057213 -98.14162491 16.18690909 -83 16 C-81.86965332 15.98743164 -80.73930664 15.97486328 -79.57470703 15.96191406 C-53.54240429 15.57960241 -27.99880882 11.63969009 -4.1171875 0.8828125 C-2 0 -2 0 0 0 Z " fill="#181718" transform="translate(789,249)"/>
<path d="M0 0 C1.62529234 -0.00274662 3.25058289 -0.00680383 4.8758691 -0.01204365 C9.30389101 -0.02255088 13.7317087 -0.01455371 18.15972149 -0.00329316 C22.94978682 0.0055975 27.73982682 -0.00290857 32.52989197 -0.00915527 C41.89772843 -0.01861643 51.26548757 -0.01206733 60.63331827 0.00010767 C71.55061075 0.01376523 82.46788505 0.01208655 93.38518391 0.00997434 C112.86689727 0.00678848 132.34857399 0.01842984 151.83027649 0.03804016 C170.72091283 0.05705043 189.61150627 0.06412514 208.50215149 0.05854797 C229.09314687 0.05248675 249.6841234 0.05267295 270.27511722 0.06403381 C272.47161758 0.06524105 274.66811794 0.06644704 276.8646183 0.06765175 C278.48554481 0.06855706 278.48554481 0.06855706 280.13921731 0.06948065 C287.74399462 0.0733553 295.3487649 0.07296797 302.95354271 0.0710659 C312.22239614 0.0689413 321.49121204 0.07418833 330.76005491 0.08867946 C335.48647851 0.09591007 340.21284754 0.10001181 344.93927574 0.0954361 C349.26994232 0.09134556 353.60049644 0.09656516 357.931146 0.10906217 C359.4934944 0.11197842 361.05585348 0.11157433 362.61819907 0.1074191 C378.60419985 0.06877889 392.12200107 1.48461581 404.22065735 12.87031555 C406.92928126 15.88460015 409.27259037 19.014936 411.53315735 22.3742218 C411.92769104 22.94326233 412.32222473 23.51230286 412.72871399 24.09858704 C415.70795264 28.78272721 415.91932389 32.01294055 415.47065735 37.3742218 C414.47065735 39.3742218 414.47065735 39.3742218 412.47065735 40.3742218 C405.63687957 41.25599958 405.63687957 41.25599958 401.90815735 38.4367218 C400.53166803 36.70728651 399.16313042 34.97123035 397.82221985 33.21406555 C391.98312782 25.57734912 387.15535597 20.4596379 377.47065735 18.3742218 C372.13519156 17.94095334 366.81481096 17.96421987 361.46665955 17.98654175 C359.8374318 17.98236523 358.20820695 17.97688597 356.57898748 17.97022194 C352.11687842 17.95579026 347.65495442 17.96000493 343.19283533 17.96738875 C338.37472464 17.97212376 333.55665379 17.9596076 328.73855591 17.94937134 C319.30520577 17.93218446 309.87192224 17.93134312 300.4385605 17.93658424 C292.77009787 17.94062744 285.1016549 17.9391806 277.43319321 17.93383598 C276.34132088 17.93308756 275.24944855 17.93233914 274.12448918 17.93156804 C271.90627103 17.93003654 269.68805288 17.9284982 267.46983473 17.92695307 C246.67262182 17.91322839 225.87544653 17.91866546 205.07823448 17.93013828 C186.05844634 17.94007026 167.0387555 17.92713052 148.01898237 17.90320409 C128.4818498 17.8788123 108.94476255 17.86920544 89.40761507 17.87585682 C78.44204465 17.8793489 67.47654904 17.87711765 56.51099014 17.85960579 C47.17611216 17.84488284 37.84136168 17.84424963 28.50648619 17.8616767 C23.74560459 17.87018831 18.98495075 17.87233225 14.22408104 17.85702515 C9.86165186 17.84317298 5.49964545 17.84794799 1.13724069 17.86726438 C-0.43669859 17.87102308 -2.01067177 17.86810618 -3.58458082 17.85765273 C-13.800695 17.79465166 -22.51657904 18.71427873 -31.40434265 24.1242218 C-39.16542687 32.34184038 -40.82875383 40.65807696 -40.79676819 51.65834045 C-40.8012993 52.79980601 -40.80583041 53.94127156 -40.81049883 55.11732697 C-40.82316608 58.94486163 -40.82152093 62.77225443 -40.81987 66.59980774 C-40.824767 69.34305864 -40.8326024 72.08629957 -40.84022522 74.82954407 C-40.85682459 81.50969519 -40.8623343 88.189811 -40.86344998 94.86998102 C-40.86440103 100.30167976 -40.86851418 105.73336688 -40.87485123 111.16506195 C-40.89246134 126.57347028 -40.90169055 141.98185078 -40.90019028 157.39026925 C-40.90011037 158.22060836 -40.90003045 159.05094747 -40.89994812 159.90644836 C-40.89986636 160.73780439 -40.8997846 161.56916041 -40.89970036 162.42570904 C-40.89888769 175.89486115 -40.91802099 189.36390138 -40.94622485 202.83302113 C-40.97497266 216.6713992 -40.98876408 230.50972274 -40.9870373 244.34813142 C-40.98637402 252.11395382 -40.99183915 259.87965894 -41.0133934 267.64545441 C-41.03163027 274.2582979 -41.03593212 280.87097096 -41.02237456 287.48382875 C-41.01585707 290.85534651 -41.01786819 294.22627155 -41.03308105 297.59780121 C-41.04853143 301.25954771 -41.03922524 304.92044028 -41.02381897 308.58216858 C-41.0341061 309.63841297 -41.04439322 310.69465736 -41.05499208 311.78290915 C-40.97980023 319.88908671 -39.37336505 326.83841017 -34.21684265 333.2492218 C-26.81104308 339.1049703 -20.88716705 340.52317734 -11.55355835 340.51898193 C-10.63628033 340.52250878 -9.71900231 340.52603562 -8.77392799 340.52966934 C-5.69328964 340.54036322 -2.61268222 340.54403853 0.4679718 340.54780579 C2.6739261 340.55411053 4.87987911 340.56087624 7.08583069 340.56806946 C11.84011889 340.58274483 16.59440216 340.59446738 21.34870338 340.60401726 C28.86587459 340.61945925 36.38300357 340.64340824 43.90014648 340.66891479 C54.4395128 340.70403286 64.97888254 340.7371264 75.51826477 340.76704407 C76.18705492 340.76894456 76.85584506 340.77084505 77.54490157 340.77280314 C87.03261448 340.79962608 96.52033254 340.8235034 106.00805613 340.84618814 C107.00987698 340.84858409 107.00987698 340.84858409 108.03193665 340.85102844 C108.69900193 340.85262191 109.36606722 340.85421537 110.05334661 340.85585713 C121.18302484 340.88264129 132.31266691 340.9171617 143.44230431 340.95768219 C150.9151136 340.98446009 158.3878753 341.00236198 165.86072314 341.01371944 C170.51109675 341.02284554 175.16141257 341.04020751 179.81175232 341.05989838 C181.96802042 341.06737153 184.12430333 341.0714548 186.28058434 341.07189369 C189.22514489 341.07297698 192.1694118 341.08623191 195.11392212 341.10247803 C195.96626712 341.09986117 196.81861211 341.09724432 197.69678575 341.09454817 C203.2486015 341.14236203 209.09277269 341.22645501 213.40815735 345.1242218 C214.85591817 348.19006825 215.01857993 350.01819596 214.47065735 353.3742218 C212.47878217 356.09412505 210.88031849 358.05368999 207.48755598 358.82514369 C205.00636484 358.99559814 202.57107441 358.99896339 200.08436584 358.95098877 C198.66028125 358.95338832 198.66028125 358.95338832 197.20742726 358.95583636 C194.02345984 358.95504362 190.84092372 358.91833966 187.65718079 358.88179016 C185.3755151 358.87379199 183.09384086 358.86797591 180.81216431 358.86418152 C174.61136628 358.84740107 168.41116296 358.79928798 162.21059322 358.74512553 C155.72194356 358.69319043 149.23318752 358.66813978 142.74440002 358.63973999 C131.84261506 358.58808384 120.94109034 358.51749824 110.039505 358.43403625 C98.83415282 358.34827366 87.62885727 358.27847379 76.42329407 358.227005 C75.73372634 358.2238352 75.04415862 358.22066539 74.33369491 358.21739953 C73.64529817 358.21423887 72.95690143 358.21107822 72.24764419 358.20782179 C70.86145001 358.20145324 69.47525586 358.19507828 68.08906174 358.18869686 C67.40536596 358.18555152 66.72167019 358.18240619 66.01725636 358.17916554 C54.6805533 358.12631028 43.34394681 358.05668799 32.00733662 357.98699117 C28.144916 357.96407969 24.28248843 357.94367138 20.42005157 357.92370415 C14.34284072 357.89136255 8.26578248 357.84876409 2.18869591 357.79830551 C-0.03928411 357.78127467 -2.26729195 357.76751414 -4.49531364 357.75729942 C-7.54206417 357.74271893 -10.58848128 357.71605409 -13.63511658 357.68634033 C-14.51208136 357.68486447 -15.38904614 357.6833886 -16.29258561 357.68186802 C-28.66399569 357.52395993 -38.50436692 353.88699827 -47.67778015 345.4445343 C-56.63295882 335.43135984 -58.99393616 322.59136024 -58.91029358 309.5916748 C-58.91497355 308.4569265 -58.91965352 307.32217819 -58.92447531 306.15304357 C-58.93637252 302.37793401 -58.92698839 298.60319102 -58.91752625 294.82807922 C-58.91994509 292.11028298 -58.92682978 289.39250194 -58.93345642 286.67471313 C-58.9467548 280.07475762 -58.94393309 273.4749048 -58.9352185 266.87494536 C-58.92842524 261.50632623 -58.92753232 256.13773575 -58.93078995 250.76911354 C-58.93124965 250.00309563 -58.93170935 249.23707771 -58.93218298 248.44784713 C-58.93314222 246.89133824 -58.93411486 245.33482935 -58.93510075 243.77832047 C-58.94364368 229.20206788 -58.93383866 214.625872 -58.91769965 200.04962871 C-58.90430553 187.56657077 -58.90661921 175.08359658 -58.92045593 162.60054016 C-58.93654509 148.0787623 -58.94281135 133.55703411 -58.93361914 119.03524858 C-58.93266358 117.48375818 -58.93172046 115.93226777 -58.93078995 114.38077736 C-58.93032712 113.61756954 -58.92986429 112.85436172 -58.92938744 112.06802639 C-58.92680694 106.71290246 -58.93114835 101.35781028 -58.93822861 96.00269127 C-58.94668134 89.46621878 -58.94428512 82.92985423 -58.92838638 76.39339396 C-58.92055267 73.06396815 -58.91896776 69.73486885 -58.92733383 66.40542221 C-58.97447225 45.73207526 -58.93072566 28.51852044 -44.0332489 12.73750305 C-31.42984004 0.84192994 -16.59148768 -0.0855662 0 0 Z " fill="#E8B648" transform="translate(166.5293426513672,162.6257781982422)"/>
<path d="M0 0 C2.92483798 -0.00435064 5.84813467 -0.04071813 8.77270508 -0.07861328 C36.99552121 -0.24754094 66.72154057 6.5953781 87.8918457 26.37060547 C90.5022157 29.2014592 93.04622417 32.08289233 95.5871582 34.97607422 C97.55898897 37.02477296 98.94697702 38.21408521 101.4543457 39.43310547 C111.20641849 44.92972831 118.23336716 56.05742429 121.98950195 66.39013672 C127.42680473 86.49551209 123.66939125 110.34666797 115.8918457 129.37060547 C113.17077876 132.09167241 111.0440826 131.97716119 107.2668457 132.49560547 C105.48407227 132.74697266 105.48407227 132.74697266 103.6652832 133.00341797 C102.75004883 133.12458984 101.83481445 133.24576172 100.8918457 133.37060547 C88.22310669 117.12977016 82.42738954 102.02869551 80.3293457 81.43310547 C80.10542951 79.25664012 79.87519373 77.08081351 79.63793945 74.90576172 C79.54182373 73.96095947 79.44570801 73.01615723 79.34667969 72.04272461 C78.86853515 69.23365755 78.13773653 66.93149358 76.8918457 64.37060547 C72.72265449 62.28600986 68.40591646 62.66841668 63.8918457 63.37060547 C59.25458549 64.98453208 54.86136697 67.18659417 50.4230957 69.27294922 C37.1739123 75.49461902 23.29195769 78.22176421 8.8918457 80.37060547 C7.73555664 80.54930176 6.57926758 80.72799805 5.38793945 80.91210938 C-0.42744143 81.62158898 -6.26225249 81.51342287 -12.11206055 81.50341797 C-13.34931381 81.50437469 -14.58656708 81.50533142 -15.86131287 81.50631714 C-18.46760102 81.50699539 -21.0738909 81.50516595 -23.68017578 81.50097656 C-27.6607646 81.49561878 -31.64124082 81.50093602 -35.62182617 81.50732422 C-38.16023788 81.50666346 -40.69864951 81.50538236 -43.23706055 81.50341797 C-45.01543053 81.50645432 -45.01543053 81.50645432 -46.82972717 81.509552 C-52.37469478 81.49387375 -57.64403874 81.30655064 -63.1081543 80.37060547 C-65.96303253 80.14701395 -68.80780807 80.09627675 -71.6706543 80.05810547 C-72.39961914 80.02910156 -73.12858398 80.00009766 -73.87963867 79.97021484 C-79.07034063 79.90947756 -82.06317146 80.84098341 -86.1081543 84.37060547 C-87.7230445 86.77745455 -87.7230445 86.77745455 -88.7331543 89.49560547 C-89.1353418 90.45724609 -89.5375293 91.41888672 -89.9519043 92.40966797 C-90.70586465 94.34041779 -91.45604932 96.27264756 -92.2019043 98.20654297 C-92.5422168 99.08568359 -92.8825293 99.96482422 -93.2331543 100.87060547 C-93.52448242 101.66466797 -93.81581055 102.45873047 -94.1159668 103.27685547 C-95.15843946 105.47671904 -96.29344991 106.771205 -98.1081543 108.37060547 C-98.74124621 107.18739971 -99.36412147 105.99872699 -99.9831543 104.80810547 C-100.50522461 103.81617188 -100.50522461 103.81617188 -101.0378418 102.80419922 C-106.38603363 90.64389444 -106.22723216 72.78169399 -102.2722168 60.21435547 C-93.99834692 40.00168007 -82.3474215 24.42918703 -63.1081543 13.37060547 C-62.21870117 12.84595703 -61.32924805 12.32130859 -60.4128418 11.78076172 C-51.54074985 6.92458883 -41.95828497 4.42003048 -32.1081543 2.37060547 C-31.21153076 2.18224121 -30.31490723 1.99387695 -29.39111328 1.79980469 C-19.63428178 0.02381535 -9.88458891 -0.00163828 0 0 Z " fill="#181717" transform="translate(725.108154296875,168.62939453125)"/>
<path d="M0 0 C1.01465332 0.23227295 1.01465332 0.23227295 2.04980469 0.46923828 C3.53664744 0.81064917 5.02205692 1.15835146 6.50610352 1.51171875 C22.26296487 5.17527427 40.98465771 6.50767115 56 -1 C67.72782924 -2.57874624 78.88634167 5.03380629 87.97265625 11.6640625 C104.97945788 24.78673008 116.8953598 42.11929255 120.6953125 63.61035156 C123.35471698 84.46792453 123.35471698 84.46792453 119 91 C116.5339382 91.29475256 114.31829803 91.39147389 111.85006714 91.36076355 C111.10515176 91.36332682 110.36023638 91.3658901 109.59274781 91.36853105 C107.08358794 91.37349309 104.57502287 91.35693672 102.06591797 91.34057617 C100.27254246 91.33973042 98.47916592 91.34020403 96.68579102 91.34190369 C91.8058095 91.34276709 86.92604762 91.3250856 82.04611731 91.30418181 C76.95052538 91.28547241 71.85492884 91.28366911 66.75930786 91.28010559 C57.10493303 91.27076822 47.45065969 91.24613159 37.79632962 91.21605712 C26.80738931 91.18256569 15.81844424 91.16604035 4.82946563 91.15097082 C-17.78041259 91.11958348 -40.39020062 91.06679017 -63 91 C-68.06968671 78.79023795 -65.57847946 63.03779993 -61 51 C-53.31399288 32.68138719 -41.89691786 17.50415364 -24.875 7 C-23.76535889 6.31454102 -23.76535889 6.31454102 -22.63330078 5.61523438 C-15.24031141 1.24463928 -8.67686639 -2.02848442 0 0 Z " fill="#181717" transform="translate(204,760)"/>
<path d="M0 0 C1.05590332 0.00684814 2.11180664 0.01369629 3.19970703 0.02075195 C11.19367467 0.18506214 17.82647009 1.15400853 25.1875 4.4375 C26.07179688 4.81132813 26.95609375 5.18515625 27.8671875 5.5703125 C44.04760158 12.99658157 56.44020833 26.65345844 63 43.0625 C63.75342223 45.17902167 64.48529016 47.3034404 65.1875 49.4375 C65.435 50.17226563 65.6825 50.90703125 65.9375 51.6640625 C70.66664258 68.67583929 66.20232658 87.09594135 58.1015625 102.24609375 C48.60793892 118.07525797 34.00045605 128.10531544 16.21875 132.7109375 C15.2184375 132.95070313 14.218125 133.19046875 13.1875 133.4375 C12.54554688 133.6132959 11.90359375 133.7890918 11.2421875 133.97021484 C1.05220837 136.28766019 -11.08730805 134.8018171 -20.8125 131.4375 C-21.79476562 131.10878906 -22.77703125 130.78007813 -23.7890625 130.44140625 C-40.8337731 124.07716676 -54.32588434 110.55136802 -62.15234375 94.3125 C-66.23288105 85.186137 -68.80085211 75.47307525 -67.8125 65.4375 C-67.67134766 63.82101562 -67.67134766 63.82101562 -67.52734375 62.171875 C-65.31499841 42.66886944 -55.65842482 26.27320546 -40.625 13.75 C-28.46574978 4.75810692 -15.09417877 -0.15058039 0 0 Z " fill="#181718" transform="translate(414.8125,598.5625)"/>
<path d="M0 0 C2.21875 1.3671875 2.21875 1.3671875 5.15625 3.9921875 C14.96129891 12.59237871 27.26528695 17.26106382 39.21850586 22.04199219 C40.22405518 22.44579102 41.22960449 22.84958984 42.265625 23.265625 C43.17151367 23.62317871 44.07740234 23.98073242 45.01074219 24.34912109 C47.21875 25.3671875 47.21875 25.3671875 49.21875 27.3671875 C53.91928807 44.94352432 50.68193672 64.53727954 42.6484375 80.484375 C38.25757601 87.97217261 32.27569362 94.21283689 26.21875 100.3671875 C25.58453125 101.02589844 24.9503125 101.68460938 24.296875 102.36328125 C9.69628463 116.35012999 -9.95963999 121.97498475 -29.6953125 121.6328125 C-50.12244512 120.8450743 -67.77809656 110.96677967 -81.78125 96.3671875 C-96.18651154 80.15224392 -102.25881298 60.33549479 -101.6875 38.83984375 C-101.14992409 30.92019863 -101.14992409 30.92019863 -98.78125 27.3671875 C-96.30126953 26.64697266 -96.30126953 26.64697266 -93.1640625 26.15625 C-92.0105127 25.96651611 -90.85696289 25.77678223 -89.66845703 25.58129883 C-88.42692871 25.38689209 -87.18540039 25.19248535 -85.90625 24.9921875 C-59.44016407 20.51991683 -32.13132046 13.85563045 -8.09521484 1.52807617 C-5.06116457 0.03240148 -3.36203186 -0.76495669 0 0 Z " fill="#181717" transform="translate(257.78125,627.6328125)"/>
<path d="M0 0 C1.35112216 1.14601823 2.68535079 2.31231892 4 3.5 C4.67160156 4.06847656 5.34320313 4.63695312 6.03515625 5.22265625 C14.82292675 13.19768497 22.32376099 25.87538891 23.16796875 37.890625 C23.18431978 39.7611833 23.10376387 41.63225035 23 43.5 C10.23749861 40.47502789 -0.11926696 33.93689353 -10 25.5 C-10.89074219 24.79617188 -11.78148437 24.09234375 -12.69921875 23.3671875 C-15 21.5 -15 21.5 -16.3125 19.8125 C-19.19021544 17.57427688 -22.46778382 17.2649666 -26 17.5 C-29.24045872 19.16030012 -29.24045872 19.16030012 -32 21.5 C-41.74883043 27.68228598 -52.66299007 31.72819107 -63.5625 35.375 C-64.18264984 35.58388855 -64.80279968 35.7927771 -65.44174194 36.00799561 C-102.85105082 48.5 -102.85105082 48.5 -117 48.5 C-118.38454851 34.93142462 -111.0348381 21.90625388 -103 11.5 C-77.34484804 -19.92085684 -31.88227533 -24.02164538 0 0 Z " fill="#181717" transform="translate(279,591.5)"/>
<path d="M0 0 C0.94254639 0.28439941 1.88509277 0.56879883 2.85620117 0.86181641 C12.68066229 3.66339775 21.79040929 4.57698061 31.98364258 4.41162109 C34.32872652 4.37474484 36.67223175 4.3706063 39.01757812 4.37109375 C47.21957639 4.33254235 54.97296939 3.84667378 63 2 C64.07636719 1.79117187 65.15273438 1.58234375 66.26171875 1.3671875 C67.06222656 1.20476562 67.86273437 1.04234375 68.6875 0.875 C69.51636719 0.70742188 70.34523438 0.53984375 71.19921875 0.3671875 C71.79347656 0.24601562 72.38773438 0.12484375 73 0 C76.24853874 7.14678523 76.01211112 14.84523945 73.5625 22.25 C68.11565011 35.46718119 60.55020321 46.46434335 51 57 C49.72707738 58.47736908 48.45592658 59.95626896 47.1875 61.4375 C46.12855925 62.62817501 45.06625356 63.81586916 44 65 C43.46632813 65.61101562 42.93265625 66.22203125 42.3828125 66.8515625 C40.8125 68.5625 40.8125 68.5625 38 71 C31.68758656 70.4909344 26.64048457 63.84219229 22.625 59.4375 C15.47983914 50.94143173 9.26137165 42.1999994 4.4375 32.1875 C4.10306885 31.50695557 3.7686377 30.82641113 3.42407227 30.12524414 C-0.97389973 20.55291519 -0.09289356 10.31118569 0 0 Z " fill="#181717" transform="translate(690,442)"/>
<path d="M0 0 C2.875 1.5625 2.875 1.5625 5 4 C5.625 7.4375 5.625 7.4375 5 11 C1.35527694 15.39713748 -2.51448033 17.52412913 -7.625 19.75 C-8.29273438 20.05292969 -8.96046875 20.35585938 -9.6484375 20.66796875 C-19.45995969 25.08315373 -30.9527635 25.83715206 -41.25 22.25 C-45.79194224 20.29262277 -49.4099195 18.16829158 -52.375 14.125 C-53.2916868 11.00826488 -52.94954723 9.10185429 -52 6 C-49.97142477 3.0839231 -48.46369468 1.37080265 -44.94921875 0.48046875 C-41.46777829 0.22191618 -38.99720447 0.28946622 -36.09765625 2.35546875 C-35.48792969 2.89816406 -34.87820312 3.44085937 -34.25 4 C-29.77333063 7.79348288 -25.70096605 7.73512079 -19.9921875 7.46484375 C-16.14277318 6.86682769 -13.9177032 5.5529903 -11 3 C-7.16189335 0.31332534 -4.71510567 -0.68761958 0 0 Z " fill="#E8B84A" transform="translate(256,704)"/>
<path d="M0 0 C2.5234375 1.3515625 2.5234375 1.3515625 5.0625 3 C8.7988486 5.41797598 11.43802558 6.93594976 15.9375 6.609375 C19.51545906 5.55225073 22.4321826 3.36720603 25.54296875 1.35546875 C29.43854084 -0.79359884 31.62878108 -0.81497302 36 0 C39.0625 2.125 39.0625 2.125 41 5 C41.07179193 8.51780477 40.62861949 10.24444773 38.375 12.953125 C35.48119555 15.44712752 32.35885104 17.05676259 28.9375 18.6875 C28.00067383 19.14866211 28.00067383 19.14866211 27.04492188 19.61914062 C17.8673506 24.09528798 8.09208105 24.43693185 -1.63671875 21.125 C-6.23000276 18.93844497 -11.66929362 15.66141275 -14 11 C-14.45404871 6.91356163 -14.66920478 4.84190279 -12.0625 1.5625 C-7.85569328 -0.58382996 -4.62918493 -1.01401194 0 0 Z " fill="#E9B84B" transform="translate(402,688)"/>
<path d="M0 0 C3.8182718 0.41278614 6.28053705 1.26343351 9 4 C11.26018249 16.69690751 7.45549125 30.57887141 5 43 C-0.19031078 41.3825067 -4.06772586 38.14487963 -8.3125 34.875 C-9.05306641 34.31167969 -9.79363281 33.74835938 -10.55664062 33.16796875 C-12.37501609 31.78365711 -14.18924674 30.39425774 -16 29 C-14.64532558 25.28792647 -12.9458091 22.21637711 -10.75 18.9375 C-7.4786946 13.90735467 -4.7620357 8.74027747 -2.1640625 3.3359375 C-1 1 -1 1 0 0 Z " fill="#171617" transform="translate(777,471)"/>
<path d="M0 0 C3.51815084 4.21958901 5.60859964 9.14399268 7.95117188 14.06835938 C9.53766729 17.3299983 10.96167728 19.95443927 13.31640625 22.75390625 C15 25 15 25 14.90991211 26.93823242 C13.61785559 29.86590006 11.87942028 30.6494129 9.125 32.234375 C8.14015625 32.80800781 7.1553125 33.38164062 6.140625 33.97265625 C4.58601562 34.85244141 4.58601562 34.85244141 3 35.75 C1.96359375 36.35199219 0.9271875 36.95398438 -0.140625 37.57421875 C-7.80796485 42 -7.80796485 42 -9 42 C-9.14963976 33.03408424 -8.69035336 24.18727734 -8 15.25 C-7.90460937 13.96867187 -7.80921875 12.68734375 -7.7109375 11.3671875 C-7.4778991 8.24447295 -7.24085291 5.12211985 -7 2 C-4.69 1.34 -2.38 0.68 0 0 Z " fill="#161516" transform="translate(677,473)"/>
<path d="M0 0 C3.375 1.4375 3.375 1.4375 6 4 C7.13424101 7.08605677 7.42417168 9.74026972 7 13 C5.00266973 16.19572844 3.48579502 17.53926723 -0.12890625 18.66015625 C-4.49949656 19.42186657 -6.49800808 19.26892424 -10.5 17.125 C-13.97577855 14.17058824 -13.97577855 14.17058824 -14.2734375 12.07421875 C-14.37744671 9.63000231 -14.38958778 7.41798504 -14 5 C-9.6698208 0.44191663 -6.19779888 -0.51648324 0 0 Z " fill="#E7B84A" transform="translate(269,670)"/>
<path d="M0 0 C2.93423195 1.79646854 4.47205355 2.9441071 6 6 C6.42576871 9.83191838 6.30321315 11.52949683 4.1875 14.8125 C1.17551651 17.82448349 -0.63033199 17.97615045 -4.875 18.25 C-8.66549729 18.20811605 -10.96744917 17.38928247 -14 15 C-15.61827917 11.76344166 -15.56192191 8.49863286 -15 5 C-11.32281129 -0.88350193 -6.39127352 -1.16491192 0 0 Z " fill="#EABB4C" transform="translate(208,670)"/>
<path d="M0 0 C2.9171225 1.32812081 3.85682282 2.41719673 6 5 C6.85644749 9.36009631 6.51416292 11.1944781 4.125 14.9375 C-0.25861993 17.83068915 -3.88768803 17.8982223 -9 17 C-12.63882515 15.06919482 -13.67767266 13.94683656 -15 10.0625 C-15 6.39707859 -14.23178648 4.86943977 -12 2 C-7.95573322 -0.69617786 -4.74901862 -0.77534998 0 0 Z " fill="#EABB4B" transform="translate(445,651)"/>
<path d="M0 0 C2.92584944 1.3154029 3.83752812 2.40503374 6 5 C6.70954605 8.01410469 6.46048338 9.82778114 6 13 C4.18836733 15.67431489 3.12238923 15.95920359 0 17 C-4.48755273 17.51262306 -7.94663738 17.54862636 -12 15.4375 C-14.67154038 12.18156016 -15.14742311 10.20155864 -15 6 C-10.69476386 0.64754426 -6.83565922 -1.08864202 0 0 Z " fill="#E8B94A" transform="translate(393,651)"/>
<path d="M0 0 C0 0.99 0 1.98 0 3 C-36.0047458 3.8103983 -71.9864211 4.14367899 -108 4 C-108.33 3.01 -108.66 2.02 -109 1 C-108.16647806 1.00138269 -108.16647806 1.00138269 -107.31611729 1.00279331 C-93.8132345 1.02484982 -80.31035485 1.04134841 -66.80745792 1.05181217 C-60.27763767 1.0570417 -53.74783037 1.06414061 -47.21801758 1.07543945 C-40.92218841 1.08626585 -34.62637174 1.09227631 -28.33053398 1.09487724 C-25.92265056 1.09673194 -23.51476786 1.1003534 -21.10688972 1.10573006 C-17.74710714 1.1129372 -14.3873769 1.11399108 -11.02758789 1.11352539 C-10.02130341 1.11712067 -9.01501892 1.12071594 -7.97824097 1.12442017 C-7.06813766 1.1230455 -6.15803436 1.12167084 -5.22035217 1.12025452 C-4.42484483 1.12117631 -3.62933748 1.1220981 -2.80972385 1.12304783 C-0.97861111 1.19778133 -0.97861111 1.19778133 0 0 Z " fill="#DEBB52" transform="translate(324,849)"/>
<path d="M0 0 C0.33 0.66 0.66 1.32 1 2 C0.67 2.66 0.34 3.32 0 4 C0.515625 4.226875 1.03125 4.45375 1.5625 4.6875 C4.33112365 6.17829735 6.72614776 7.96979954 9.21875 9.87890625 C11.13722103 11.08636499 12.78702676 11.56808198 15 12 C15 11.34 15 10.68 15 10 C15.66 10 16.32 10 17 10 C17.66 12.64 18.32 15.28 19 18 C13.80968922 16.3825067 9.93227414 13.14487963 5.6875 9.875 C4.94693359 9.31167969 4.20636719 8.74835938 3.44335938 8.16796875 C1.62498391 6.78365711 -0.18924674 5.39425774 -2 4 C-1.34 2.68 -0.68 1.36 0 0 Z " fill="#110F13" transform="translate(763,496)"/>
<path d="M0 0 C2 2 2 2 2.23046875 5.40625 C2.22647854 6.77090267 2.21172843 8.1355566 2.1875 9.5 C2.18685547 10.18964844 2.18621094 10.87929688 2.18554688 11.58984375 C2.14055525 16.71888951 2.14055525 16.71888951 1 19 C0.34 18.67 -0.32 18.34 -1 18 C-1.02684312 15.18743719 -1.04676188 12.37512759 -1.0625 9.5625 C-1.07087891 8.76005859 -1.07925781 7.95761719 -1.08789062 7.13085938 C-1.0965143 5.08704779 -1.0522815 3.04316098 -1 1 C-0.67 0.67 -0.34 0.34 0 0 Z " fill="#DBB34A" transform="translate(675,440)"/>
<path d="M0 0 C0.99 0 1.98 0 3 0 C4.81304156 3.87689915 5.24579233 6.92156136 5.1875 11.1875 C5.18105469 12.23292969 5.17460938 13.27835937 5.16796875 14.35546875 C5 17 5 17 4 19 C3.34 18.67 2.68 18.34 2 18 C2.02320313 17.10796875 2.04640625 16.2159375 2.0703125 15.296875 C2.09738281 13.54117187 2.09738281 13.54117187 2.125 11.75 C2.14820313 10.58984375 2.17140625 9.4296875 2.1953125 8.234375 C2.0089761 5.14864419 1.56896402 3.59434995 0 1 C0 0.67 0 0.34 0 0 Z " fill="#2B211A" transform="translate(760,442)"/>
<path d="M0 0 C0 3.61165822 -0.61753391 4.3710719 -3 7 C-4.1446875 7.6496875 -4.1446875 7.6496875 -5.3125 8.3125 C-8.96281274 10.60455684 -11.33298024 13.65476904 -14 17 C-14.66 16.67 -15.32 16.34 -16 16 C-14.08743854 13.89197235 -12.17019745 11.78855326 -10.25 9.6875 C-9.71117187 9.09259766 -9.17234375 8.49769531 -8.6171875 7.88476562 C-5.91859521 4.93935086 -3.3371486 2.24366544 0 0 Z " fill="#E9C361" transform="translate(179,578)"/>
<path d="M0 0 C0 0.33 0 0.66 0 1 C-1.10859375 1.20496094 -2.2171875 1.40992188 -3.359375 1.62109375 C-4.82292867 1.89316462 -6.28646967 2.16530362 -7.75 2.4375 C-8.47960937 2.57220703 -9.20921875 2.70691406 -9.9609375 2.84570312 C-14.0229341 3.59211201 -14.0229341 3.59211201 -18.04003906 4.54321289 C-20.70968805 5.1653994 -23.2703236 5.0620381 -26 5 C-23.21014666 2.21014666 -20.12303075 2.0416189 -16.375 1.375 C-15.68792969 1.2409375 -15.00085938 1.106875 -14.29296875 0.96875 C-9.46182222 0.08047165 -4.91028967 -0.12137795 0 0 Z " fill="#F5D362" transform="translate(703,155)"/>
<path d="M0 0 C5.39882424 4.59474404 10.71333087 9.27676273 16 14 C14.1875 15.5625 14.1875 15.5625 12 17 C11.01 16.67 10.02 16.34 9 16 C9.66 15.67 10.32 15.34 11 15 C11.33 14.01 11.66 13.02 12 12 C11.42765625 11.7525 10.8553125 11.505 10.265625 11.25 C7.64989389 9.80683801 5.85226544 8.11783778 3.75 6 C3.04359375 5.29875 2.3371875 4.5975 1.609375 3.875 C0 2 0 2 0 0 Z " fill="#0C0A10" transform="translate(350,718)"/>
<path d="M0 0 C2 3 2 3 1.79296875 5.6015625 C1.59316406 6.59929688 1.39335937 7.59703125 1.1875 8.625 C0.22074841 13.75190196 -0.48099015 18.80990155 -1 24 C-1.33 24 -1.66 24 -2 24 C-2.0544207 21.31222198 -2.09387266 18.62556788 -2.125 15.9375 C-2.14175781 15.18533203 -2.15851563 14.43316406 -2.17578125 13.65820312 C-2.21865121 8.70672291 -1.58399375 4.69585549 0 0 Z " fill="#110E12" transform="translate(141,819)"/>
<path d="M0 0 C5.61 0.33 11.22 0.66 17 1 C17 1.66 17 2.32 17 3 C17.66 3 18.32 3 19 3 C19 3.66 19 4.32 19 5 C9.595 3.515 9.595 3.515 0 2 C0 1.34 0 0.68 0 0 Z " fill="#EAC45F" transform="translate(751,168)"/>
<path d="M0 0 C9.17286652 -0.63019694 9.17286652 -0.63019694 12.625 2 C13.07875 2.66 13.5325 3.32 14 4 C13.67 4.66 13.34 5.32 13 6 C12.01 5.34 11.02 4.68 10 4 C7.49103314 3.54398739 7.49103314 3.54398739 4.8125 3.375 C3.91144531 3.30023438 3.01039063 3.22546875 2.08203125 3.1484375 C1.39496094 3.09945313 0.70789063 3.05046875 0 3 C0 2.01 0 1.02 0 0 Z " fill="#D0A953" transform="translate(408,424)"/>
<path d="M0 0 C6.7281627 -0.22262303 12.53991163 0.04978464 19 2 C18.34 2.66 17.68 3.32 17 4 C14.3984375 3.9765625 14.3984375 3.9765625 11.375 3.625 C10.37210938 3.51414063 9.36921875 3.40328125 8.3359375 3.2890625 C7.17964844 3.14597656 7.17964844 3.14597656 6 3 C6 2.67 6 2.34 6 2 C3.03 1.505 3.03 1.505 0 1 C0 0.67 0 0.34 0 0 Z " fill="#E9C45E" transform="translate(751,155)"/>
<path d="M0 0 C0.66 0.33 1.32 0.66 2 1 C1.34 1.66 0.68 2.32 0 3 C4.455 5.97 4.455 5.97 9 9 C8.01 9.495 8.01 9.495 7 10 C4.3984375 8.78515625 4.3984375 8.78515625 1.375 7.0625 C0.37210937 6.49660156 -0.63078125 5.93070313 -1.6640625 5.34765625 C-2.43492187 4.90292969 -3.20578125 4.45820312 -4 4 C-2.68 2.68 -1.36 1.36 0 0 Z " fill="#0F0D12" transform="translate(287,745)"/>
<path d="M0 0 C0.33 0 0.66 0 1 0 C1.33 4.29 1.66 8.58 2 13 C1.01 13 0.02 13 -1 13 C-1.07654536 8.48382401 -1.10228696 4.40914783 0 0 Z " fill="#D8B049" transform="translate(804,238)"/>
<path d="M0 0 C0.19294408 4.82360189 -0.24252386 8.49646738 -2 13 C-2.33 13 -2.66 13 -3 13 C-3 9.04 -3 5.08 -3 1 C-1 0 -1 0 0 0 Z " fill="#D6B249" transform="translate(851,262)"/>
<path d="M0 0 C-1.4117783 0.53394179 -2.82970244 1.05165104 -4.25 1.5625 C-5.03890625 1.85253906 -5.8278125 2.14257812 -6.640625 2.44140625 C-9.19103452 3.04522837 -10.55322229 2.8473932 -13 2 C-12.67 1.34 -12.34 0.68 -12 0 C-7.56759403 -0.79928632 -4.33947146 -1.29696563 0 0 Z " fill="#E9C35F" transform="translate(690,172)"/>
<path d="M0 0 C-0.33 0.99 -0.66 1.98 -1 3 C-5.07467725 4.48882438 -8.66541415 5.26270217 -13 5 C-10.54278328 3.36185552 -8.65432189 2.38047801 -5.9375 1.375 C-5.24527344 1.11460937 -4.55304687 0.85421875 -3.83984375 0.5859375 C-2 0 -2 0 0 0 Z " fill="#E9C256" transform="translate(778,237)"/>
<path d="M0 0 C0.66 0.33 1.32 0.66 2 1 C0.99806563 4.79303725 0.18975773 7.71536341 -2 11 C-1.85957123 9.35369672 -1.71250671 7.70795821 -1.5625 6.0625 C-1.48128906 5.14597656 -1.40007812 4.22945312 -1.31640625 3.28515625 C-1 1 -1 1 0 0 Z " fill="#EBC44D" transform="translate(146,626)"/>
<path d="M0 0 C0 0.99 0 1.98 0 3 C-3.96 2.67 -7.92 2.34 -12 2 C-12 1.67 -12 1.34 -12 1 C-7.95858806 0.36605303 -4.0934693 -0.12404452 0 0 Z " fill="#2B221B" transform="translate(711,169)"/>
<path d="M0 0 C1.13732426 3.40401948 0.83989957 5.77456664 0.0625 9.25 C-0.13214844 10.14203125 -0.32679687 11.0340625 -0.52734375 11.953125 C-0.68332031 12.62859375 -0.83929688 13.3040625 -1 14 C-1.33 14 -1.66 14 -2 14 C-2.22174933 12.54364629 -2.42698698 11.08477044 -2.625 9.625 C-2.74101563 8.81289063 -2.85703125 8.00078125 -2.9765625 7.1640625 C-2.98429687 6.44992187 -2.99203125 5.73578125 -3 5 C-2.34 4.34 -1.68 3.68 -1 3 C-0.67 2.01 -0.34 1.02 0 0 Z " fill="#E0AF48" transform="translate(128,812)"/>
<path d="M0 0 C0 0.99 0 1.98 0 3 C-2.3125 5.25 -2.3125 5.25 -5 7 C-5.99 6.67 -6.98 6.34 -8 6 C-5.36 4.02 -2.72 2.04 0 0 Z " fill="#EEC764" transform="translate(371,596)"/>
<path d="M0 0 C0.66 0.33 1.32 0.66 2 1 C-1.60957611 4.2910841 -4.12637153 5.54663921 -9 6 C-6.45368965 3.02930459 -3.57769851 1.5224249 0 0 Z " fill="#F2C962" transform="translate(561,493)"/>
<path d="M0 0 C2.31 0 4.62 0 7 0 C7 0.99 7 1.98 7 3 C4.69 3 2.38 3 0 3 C0 2.01 0 1.02 0 0 Z " fill="#D9AE49" transform="translate(706,444)"/>
<path d="M0 0 C0.99 0 1.98 0 3 0 C2.67 0.99 2.34 1.98 2 3 C1.34 3 0.68 3 0 3 C-0.33 3.99 -0.66 4.98 -1 6 C-1.66 6 -2.32 6 -3 6 C-2.42655063 3.13275314 -2.1385485 2.1385485 0 0 Z " fill="#F0C657" transform="translate(817,372)"/>
<path d="M0 0 C0.99 0 1.98 0 3 0 C2.67 3.3 2.34 6.6 2 10 C0.0044484 6.00889681 -0.19546065 4.30013434 0 0 Z " fill="#2E251E" transform="translate(331,649)"/>
<path d="M0 0 C1.125 3.75 1.125 3.75 0 6 C-1.64142963 7.0409066 -3.30712215 8.04504326 -5 9 C-3.7508258 5.54074837 -2.32472205 2.85306797 0 0 Z " fill="#F1CA50" transform="translate(755,480)"/>
<path d="M0 0 C0.33 0 0.66 0 1 0 C1 2.64 1 5.28 1 8 C1.66 8 2.32 8 3 8 C2.34 9.32 1.68 10.64 1 12 C0.67 12 0.34 12 0 12 C0 8.04 0 4.08 0 0 Z " fill="#352A1B" transform="translate(668,503)"/>
<path d="M0 0 C0 0.99 0 1.98 0 3 C-2.97 3.66 -5.94 4.32 -9 5 C-4 0 -4 0 0 0 Z " fill="#F0C95D" transform="translate(582,484)"/>
<path d="M0 0 C2.31 0.33 4.62 0.66 7 1 C7.33 2.98 7.66 4.96 8 7 C7.34 7 6.68 7 6 7 C5.7525 6.030625 5.505 5.06125 5.25 4.0625 C4.63125 2.5465625 4.63125 2.5465625 4 1 C1.96756452 0.03122943 1.96756452 0.03122943 0 0 Z " fill="#F0C750" transform="translate(674,472)"/>
<path d="M0 0 C2.97 0.33 5.94 0.66 9 1 C9 1.33 9 1.66 9 2 C4.545 2.495 4.545 2.495 0 3 C0 2.01 0 1.02 0 0 Z " fill="#E2B85B" transform="translate(690,169)"/>
<path d="M0 0 C-0.33 0.66 -0.66 1.32 -1 2 C-3.97 2 -6.94 2 -10 2 C-6.86358686 -1.13641314 -4.14410883 -1.38136961 0 0 Z " fill="#EAC35F" transform="translate(687,158)"/>
</svg>
